<svg xmlns="http://www.w3.org/2000/svg" xmlns:svg="http://www.w3.org/2000/svg" id="svg8" width="1280" height="640" version="1.1" viewBox="0 0 338.667 169.333"><metadata id="metadata5"/><g id="layer1" transform="translate(0,-127.66665)"><g id="g4562" transform="translate(0,5.8208336)"><text font-size="40.865" style="line-height:1;-inkscape-font-specification:'Source Sans Pro'" id="text817" x="94.861" y="197.834" fill="#d2d2d2" fill-opacity="1" stroke="none" stroke-width="1.022" font-family="Source Sans Pro" font-stretch="normal" font-style="normal" font-variant="normal" font-weight="normal" letter-spacing="0" word-spacing="0" xml:space="preserve"><tspan id="tspan823" x="94.861" y="197.834" fill="#d2d2d2" fill-opacity="1" stroke-width="1.022" font-family="Source Sans Pro" font-stretch="normal" font-style="normal" font-variant="normal" font-weight="normal" style="line-height:1;-inkscape-font-specification:'Source Sans Pro'"><tspan style="line-height:1;-inkscape-font-specification:'Source Sans Pro'" id="tspan819" fill="#7289da" fill-opacity="1" stroke-width="1.022" font-family="Source Sans Pro" font-stretch="normal" font-style="normal" font-variant="normal" font-weight="normal">discord</tspan>bot<tspan style="line-height:1;-inkscape-font-specification:'Source Sans Pro'" id="tspan821" fill="#447dc3" fill-opacity="1" stroke-width="1.022" font-family="Source Sans Pro" font-stretch="normal" font-style="normal" font-variant="normal" font-weight="normal">.ts</tspan></tspan></text><g id="g846" transform="matrix(0.33828869,0,0,0.33828869,10.388371,142.93653)"><path id="path832" fill="#fff" d="m 104.4,103.9 c -5.7,0 -10.2,5 -10.2,11.1 0,6.1 4.6,11.1 10.2,11.1 5.7,0 10.2,-5 10.2,-11.1 0.1,-6.1 -4.5,-11.1 -10.2,-11.1 z m 36.5,0 c -5.7,0 -10.2,5 -10.2,11.1 0,6.1 4.6,11.1 10.2,11.1 5.7,0 10.2,-5 10.2,-11.1 0,-6.1 -4.5,-11.1 -10.2,-11.1 z" class="st0"/><path id="path834" fill="#fff" d="M 189.5,20 H 55.5 C 44.2,20 35,29.2 35,40.6 v 135.2 c 0,11.4 9.2,20.6 20.5,20.6 h 113.4 l -5.3,-18.5 12.8,11.9 12.1,11.2 21.5,19 V 40.6 C 210,29.2 200.8,20 189.5,20 Z m -38.6,130.6 c 0,0 -3.6,-4.3 -6.6,-8.1 13.1,-3.7 18.1,-11.9 18.1,-11.9 -4.1,2.7 -8,4.6 -11.5,5.9 -5,2.1 -9.8,3.5 -14.5,4.3 -9.6,1.8 -18.4,1.3 -25.9,-0.1 -5.7,-1.1 -10.6,-2.7 -14.7,-4.3 -2.3,-0.9 -4.8,-2 -7.3,-3.4 -0.3,-0.2 -0.6,-0.3 -0.9,-0.5 -0.2,-0.1 -0.3,-0.2 -0.4,-0.3 -1.8,-1 -2.8,-1.7 -2.8,-1.7 0,0 4.8,8 17.5,11.8 -3,3.8 -6.7,8.3 -6.7,8.3 -22.1,-0.7 -30.5,-15.2 -30.5,-15.2 0,-32.2 14.4,-58.3 14.4,-58.3 14.4,-10.8 28.1,-10.5 28.1,-10.5 l 1,1.2 c -18,5.2 -26.3,13.1 -26.3,13.1 0,0 2.2,-1.2 5.9,-2.9 10.7,-4.7 19.2,-6 22.7,-6.3 0.6,-0.1 1.1,-0.2 1.7,-0.2 6.1,-0.8 13,-1 20.2,-0.2 9.5,1.1 19.7,3.9 30.1,9.6 0,0 -7.9,-7.5 -24.9,-12.7 l 1.4,-1.6 c 0,0 13.7,-0.3 28.1,10.5 0,0 14.4,26.1 14.4,58.3 0,0 -8.5,14.5 -30.6,15.2 z" class="st0"/></g></g><text id="text850" x="10.619" y="259.356" fill="#000" fill-opacity="1" stroke="none" stroke-width=".434" font-family="sans-serif" font-size="17.356" font-style="normal" font-weight="normal" letter-spacing="0" word-spacing="0" xml:space="preserve" style="line-height:1.25"><tspan id="tspan848" x="10.619" y="259.356" fill="#d2d2d2" fill-opacity="1" stroke-width=".434">{ Useful, Convenient } - Choose two</tspan></text></g><style id="style830">.st0{fill:#fff}</style></svg>